# xmcd
# 
# Track frame offsets:
#     150
#     14959
#     34629
#     51984
#     63058
# 
# Disc length: 1092
# 
# Revision: 0
# Processed by: cddbd v1.5.2PL0 Copyright (c) Steve Scherf et al.
# Submitted via: fre:ac v1.0.17
# 
DISCID=3e044205
DTITLE=シシド・カフカ - キケンなふたり
DYEAR=2013
DGENRE=JPop
TTITLE0=キケンなふたり
TTITLE1=月の輝きかた
TTITLE2=ワンダーガール
TTITLE3=Hunger × Anger
TTITLE4=キケンなふたり～ROUDOKU～
EXTD=
EXTT0=
EXTT1=
EXTT2=
EXTT3=
EXTT4=
PLAYORDER=
